<svg width="25" height="25" viewBox="0 0 25 25" fill="none" xmlns="http://www.w3.org/2000/svg">
<path d="M2.02844 2.7439H3.76845C4.84845 2.7439 5.69844 3.6739 5.60844 4.7439L4.77844 14.7039C4.63844 16.3339 5.92844 17.7339 7.56844 17.7339H18.2184C19.6584 17.7339 20.9184 16.5539 21.0284 15.1239L21.5684 7.6239C21.6884 5.9639 20.4284 4.61389 18.7584 4.61389H5.84845" stroke="#2F2E41" stroke-width="1.5" stroke-miterlimit="10" stroke-linecap="round" stroke-linejoin="round"/>
<path d="M16.2784 22.7439C16.9688 22.7439 17.5284 22.1843 17.5284 21.4939C17.5284 20.8035 16.9688 20.2439 16.2784 20.2439C15.5881 20.2439 15.0284 20.8035 15.0284 21.4939C15.0284 22.1843 15.5881 22.7439 16.2784 22.7439Z" stroke="#2F2E41" stroke-width="1.5" stroke-miterlimit="10" stroke-linecap="round" stroke-linejoin="round"/>
<path d="M8.27844 22.7439C8.9688 22.7439 9.52844 22.1843 9.52844 21.4939C9.52844 20.8035 8.9688 20.2439 8.27844 20.2439C7.58809 20.2439 7.02844 20.8035 7.02844 21.4939C7.02844 22.1843 7.58809 22.7439 8.27844 22.7439Z" stroke="#2F2E41" stroke-width="1.5" stroke-miterlimit="10" stroke-linecap="round" stroke-linejoin="round"/>
<path d="M9.02844 8.7439H21.0284" stroke="#2F2E41" stroke-width="1.5" stroke-miterlimit="10" stroke-linecap="round" stroke-linejoin="round"/>
</svg>
