<svg width="24" height="25" viewBox="0 0 24 25" fill="none" xmlns="http://www.w3.org/2000/svg">
<path d="M12.865 3.49622C12.4796 2.83207 11.5205 2.83207 11.1351 3.49622L8.42107 8.17353C8.2307 8.50161 7.90165 8.72551 7.52659 8.78215L2.44027 9.55038C1.58599 9.67941 1.28633 10.758 1.95164 11.3092L5.74073 14.4484C6.09147 14.739 6.25639 15.1974 6.17119 15.6448L5.18002 20.85C5.02334 21.6728 5.88712 22.3121 6.62827 21.9219L11.4177 19.4C11.7822 19.2081 12.2179 19.2081 12.5824 19.4L17.3718 21.9219C18.113 22.3121 18.9768 21.6728 18.8201 20.85L17.8289 15.6448C17.7437 15.1974 17.9087 14.739 18.2594 14.4484L22.0485 11.3092C22.7138 10.758 22.4141 9.67941 21.5598 9.55038L16.4735 8.78215C16.0985 8.72551 15.7694 8.50161 15.579 8.17353L12.865 3.49622Z" fill="#87CBAC"/>
</svg>
