<svg width="31" height="22" viewBox="0 0 31 22" fill="none" xmlns="http://www.w3.org/2000/svg">
<g clip-path="url(#clip0_42_617)">
<path d="M15.9896 17.1871C12.4342 17.1871 9.55605 14.6644 9.29121 11.4676L4.37402 7.98408C3.72761 8.72744 3.13277 9.51334 2.65277 10.3727C2.54554 10.5672 2.48967 10.782 2.48967 10.9998C2.48967 11.2177 2.54554 11.4325 2.65277 11.627C5.1948 16.1735 10.2273 19.2496 15.9896 19.2496C17.251 19.2496 18.4679 19.0778 19.6407 18.8002L17.2084 17.075C16.8067 17.1461 16.3988 17.1836 15.9896 17.1871ZM30.7 19.6836L25.5179 16.0124C27.0921 14.7963 28.3867 13.3055 29.3265 11.6265C29.4337 11.4321 29.4896 11.2173 29.4896 10.9994C29.4896 10.7815 29.4337 10.5667 29.3265 10.3723C26.7845 5.82576 21.752 2.74962 15.9896 2.74962C13.5763 2.75231 11.2021 3.30924 9.08402 4.36955L3.12058 0.144429C3.04282 0.0889598 2.95389 0.0480806 2.85889 0.0241275C2.76388 0.000174418 2.66465 -0.00638296 2.56688 0.00483006C2.46911 0.0160431 2.37471 0.0448067 2.28907 0.0894773C2.20343 0.134148 2.12823 0.19385 2.06777 0.265171L1.14761 1.35099C1.02555 1.49493 0.970855 1.67742 0.995556 1.85832C1.02026 2.03922 1.12233 2.20372 1.27933 2.31564L28.8587 21.8548C28.9365 21.9103 29.0254 21.9512 29.1204 21.9751C29.2154 21.9991 29.3146 22.0056 29.4124 21.9944C29.5102 21.9832 29.6046 21.9544 29.6902 21.9098C29.7759 21.8651 29.8511 21.8054 29.9115 21.7341L30.8321 20.6483C30.9542 20.5043 31.0088 20.3217 30.984 20.1408C30.9592 19.9599 30.857 19.7955 30.7 19.6836ZM22.0881 13.582L20.2459 12.2767C20.401 11.8656 20.4833 11.4345 20.4896 10.9996C20.4988 10.3629 20.3449 9.73316 20.0404 9.16088C19.7358 8.5886 19.2891 8.08976 18.7361 7.70445C18.1831 7.31913 17.5392 7.05807 16.8562 6.94223C16.1732 6.8264 15.47 6.85902 14.8032 7.03748C15.0859 7.38858 15.2388 7.81327 15.2396 8.24963C15.2326 8.39483 15.2084 8.53891 15.1675 8.67931L11.717 6.23482C12.9156 5.31667 14.4276 4.81318 15.9896 4.81213C16.8762 4.81167 17.7542 4.97141 18.5733 5.2822C19.3925 5.59299 20.1368 6.04874 20.7637 6.62339C21.3906 7.19805 21.8878 7.88033 22.2268 8.63124C22.5659 9.38214 22.7401 10.1869 22.7396 10.9996C22.7396 11.929 22.4917 12.7953 22.0881 13.5825V13.582Z" fill="#87CBAC"/>
</g>
<defs>
<clipPath id="clip0_42_617">
<rect width="30" height="22" fill="white" transform="translate(0.989258)"/>
</clipPath>
</defs>
</svg>
