<svg width="13" height="13" viewBox="0 0 13 13" fill="none" xmlns="http://www.w3.org/2000/svg">
<path d="M6.89346 2.4989L7.77346 4.2589C7.89346 4.5039 8.21346 4.7389 8.48346 4.7839L10.0785 5.0489C11.0985 5.2189 11.3385 5.9589 10.6035 6.6889L9.36346 7.9289C9.15346 8.1389 9.03846 8.5439 9.10346 8.8339L9.45846 10.3689C9.73846 11.5839 9.09346 12.0539 8.01846 11.4189L6.52346 10.5339C6.25346 10.3739 5.80846 10.3739 5.53346 10.5339L4.03846 11.4189C2.96846 12.0539 2.31846 11.5789 2.59846 10.3689L2.95346 8.8339C3.01846 8.5439 2.90346 8.1389 2.69346 7.9289L1.45346 6.6889C0.723458 5.9589 0.958458 5.2189 1.97846 5.0489L3.57346 4.7839C3.83846 4.7389 4.15846 4.5039 4.27846 4.2589L5.15846 2.4989C5.63846 1.5439 6.41846 1.5439 6.89346 2.4989Z" stroke="#7776BC" stroke-width="1.5" stroke-linecap="round" stroke-linejoin="round"/>
</svg>
