<svg width="18" height="14" viewBox="0 0 18 14" fill="none" xmlns="http://www.w3.org/2000/svg">
<g clip-path="url(#clip0_10_765)">
<path d="M17.7794 1.7049C17.1125 1.98937 16.405 2.1761 15.6807 2.25887C16.4352 1.82346 17.0145 1.13398 17.2873 0.312468C16.5701 0.722276 15.7853 1.01101 14.967 1.1662C14.3004 0.482477 13.3508 0.0551758 12.2998 0.0551758C10.2818 0.0551758 8.64566 1.63041 8.64566 3.57326C8.64566 3.84904 8.67801 4.11752 8.74028 4.37508C5.70344 4.22831 3.01099 2.82771 1.20872 0.699175C0.894254 1.21878 0.714062 1.82319 0.714062 2.46786C0.714062 3.68848 1.35921 4.76527 2.33962 5.39621C1.75935 5.37871 1.19185 5.22781 0.684493 4.95611C0.684285 4.97085 0.684285 4.98559 0.684285 5.00039C0.684285 6.70497 1.94382 8.12694 3.61537 8.45015C3.07729 8.59105 2.51288 8.61167 1.96525 8.51044C2.4302 9.90816 3.7797 10.9253 5.37861 10.9537C4.12805 11.8973 2.55244 12.4598 0.840544 12.4598C0.545557 12.4598 0.254745 12.4431 -0.0311279 12.4106C1.58594 13.4088 3.50663 13.9913 5.57014 13.9913C12.2913 13.9913 15.9666 8.63034 15.9666 3.98127C15.9666 3.82868 15.9631 3.67695 15.956 3.5261C16.6714 3.02819 17.2889 2.41147 17.7794 1.7049Z" fill="white"/>
</g>
<defs>
<clipPath id="clip0_10_765">
<rect width="18" height="14" fill="white"/>
</clipPath>
</defs>
</svg>
